<?xml version="1.0" standalone="no"?>
<!DOCTYPE svg PUBLIC "-//W3C//DTD SVG 20010904//EN"
 "http://www.w3.org/TR/2001/REC-SVG-20010904/DTD/svg10.dtd">
<svg version="1.0" xmlns="http://www.w3.org/2000/svg"
 width="1024.000000pt" height="1024.000000pt" viewBox="0 0 1024.000000 1024.000000"
 preserveAspectRatio="xMidYMid meet">

<g transform="translate(0.000000,1024.000000) scale(0.100000,-0.100000)"
fill="#000000" stroke="none">
<path d="M4805 9833 c-677 -43 -1432 -270 -2021 -608 -579 -333 -1100 -809
-1493 -1363 -386 -547 -672 -1235 -786 -1892 -119 -695 -92 -1399 81 -2060
345 -1319 1247 -2422 2479 -3030 486 -240 994 -390 1545 -457 209 -26 811 -25
1025 1 858 103 1603 405 2299 929 377 284 747 667 1020 1056 486 693 751 1425
832 2301 20 221 15 763 -10 970 -91 762 -331 1422 -750 2060 -186 282 -337
469 -576 714 -373 380 -768 666 -1245 901 -556 273 -1120 427 -1744 475 -122
9 -530 11 -656 3z m536 -163 c1100 -58 2141 -507 2908 -1255 501 -489 879
-1071 1120 -1727 391 -1063 351 -2352 -106 -3388 -444 -1005 -1225 -1811
-2228 -2300 -278 -135 -503 -217 -810 -295 -738 -187 -1459 -189 -2180 -5
-981 250 -1846 808 -2465 1590 -534 675 -851 1451 -957 2345 -25 213 -25 767
0 980 92 774 333 1434 750 2060 443 664 1070 1210 1772 1546 579 276 1221 435
1830 452 50 2 110 4 135 5 25 1 129 -3 231 -8z"/>
<path d="M4765 9129 c-514 -51 -989 -186 -1426 -404 -403 -203 -710 -424
-1034 -749 -338 -339 -567 -656 -765 -1061 -629 -1288 -542 -2811 227 -3985
159 -242 294 -409 498 -619 636 -653 1424 -1047 2345 -1172 197 -26 652 -37
851 -20 860 75 1633 400 2269 957 1106 967 1599 2439 1299 3881 -137 660 -444
1281 -889 1797 -102 118 -339 354 -460 457 -221 189 -484 363 -760 503 -403
205 -765 320 -1215 388 -186 28 -223 30 -525 33 -179 2 -365 -1 -415 -6z
m2208 -1984 c253 -44 449 -147 624 -328 216 -224 355 -527 423 -920 59 -347
42 -835 -40 -1156 -172 -675 -670 -1220 -1380 -1511 -309 -127 -685 -212
-1002 -227 l-138 -6 0 60 0 59 78 18 c186 42 406 121 622 223 564 265 940 798
1035 1465 19 135 19 152 -2 113 -46 -86 -158 -187 -271 -245 -355 -180 -811
-113 -1121 166 -390 350 -475 1050 -196 1609 178 356 513 609 900 678 109 20
360 21 468 2z m-2065 -197 c-17 -46 -76 -210 -132 -365 l-101 -283 -812 0
-812 0 -25 -82 c-109 -362 -155 -522 -152 -525 1 -2 61 4 132 12 498 58 982
-43 1329 -277 392 -265 590 -632 572 -1058 -9 -198 -47 -342 -141 -528 -273
-541 -951 -877 -1659 -822 -414 32 -703 158 -803 350 -25 49 -29 66 -29 145 0
74 4 98 23 137 32 65 94 125 160 156 48 22 71 26 142 25 97 -1 171 -24 245
-76 412 -294 477 -334 599 -372 97 -31 249 -35 336 -9 151 45 284 158 358 305
61 121 76 191 75 334 0 99 -5 135 -27 208 -47 157 -115 266 -236 381 -235 221
-621 375 -1075 427 -127 15 -456 16 -532 2 -41 -8 -53 -7 -53 2 0 7 18 73 41
146 118 389 284 926 386 1254 63 204 130 421 149 483 l35 112 1019 0 1019 0
-31 -82z"/>
<path d="M6664 6856 c-173 -54 -304 -279 -354 -607 -18 -119 -25 -547 -10
-685 15 -147 48 -281 90 -364 86 -170 259 -269 422 -240 170 30 304 146 368
317 37 100 54 395 39 696 -22 465 -104 735 -253 834 -87 59 -207 78 -302 49z"/>
</g>
</svg>
